<svg xmlns="http://www.w3.org/2000/svg" width="865" height="198" viewBox="0 0 865 198">
  <g id="Group_23" data-name="Group 23" transform="translate(0.004 -274)">
    <path id="Union_17" data-name="Union 17" d="M992,194V148h0V90h61.2v41H1124V61h60V16h31v84h49V61h38v87h19V104h25v20h27v24h52V119h60V95h25v24h16v20h55V72h55v45h83V84h9V68h12V84h18v33h48V52h23V0h23V139h5v53H1439.436v2Z" transform="translate(-992.004 278)" opacity="0.019"/>
    <g id="Group_22" data-name="Group 22">
      <path id="Union_23" data-name="Union 23" d="M1377,152h-4V128h-27V108h-25v-4h29v20h27v24h48v4Zm-71,0v-4h15v4Zm-4,0V65h4v87Zm224-9v-4h51V72h59v4h-55v67Zm-469-8v-4h67v4Zm-4,0V94H992V90h65v45Zm457-12v-4h16v4Zm-29,0h-56v-4h56V95h29v4h-25v24Zm321-2h-44v-4h44V52h23V0h27V4h-23V56h-23v65Zm-87,0h-79v-4h79V84h9V68h16v4h-12V88h-9v33Zm-496-17v-4h45v4Zm-4,0V20h-31V16h35v88Zm525-16V84h18v4ZM1264,65V61h42v4Zm-140,0V61h60v4Z" transform="translate(-992 274)" opacity="0.042"/>
    </g>
  </g>
</svg>
