<svg xmlns="http://www.w3.org/2000/svg" xmlns:xlink="http://www.w3.org/1999/xlink" width="206" height="168.039" viewBox="0 0 206 168.039">
  <defs>
    <linearGradient id="linear-gradient" x1="0.535" y1="0.067" x2="0.539" y2="1" gradientUnits="objectBoundingBox">
      <stop offset="0" stop-color="#6085bf"/>
      <stop offset="1" stop-color="#465f86"/>
    </linearGradient>
  </defs>
  <g id="Group_20" data-name="Group 20" transform="translate(-429.62 -1049.738)">
    <path id="Subtraction_1" data-name="Subtraction 1" d="M162.486,124H120.011l4.415-21.246L107.932,124H45.426v-.127c-1.212.087-2.23.127-3.2.127a43.821,43.821,0,0,1-16.435-3.157,42.949,42.949,0,0,1-7.172-3.7,42.144,42.144,0,0,1-6.249-4.9,40.97,40.97,0,0,1-5.156-5.945,39.6,39.6,0,0,1-3.893-6.823,38.5,38.5,0,0,1,0-31.271,39.6,39.6,0,0,1,3.893-6.823,40.97,40.97,0,0,1,5.156-5.945,42.147,42.147,0,0,1,6.249-4.9,42.95,42.95,0,0,1,7.172-3.7,43.821,43.821,0,0,1,16.435-3.157,44.606,44.606,0,0,1,9.123.95,43.348,43.348,0,0,1,4.963-17.469,46.779,46.779,0,0,1,5-7.582,49.8,49.8,0,0,1,6.431-6.587,52.656,52.656,0,0,1,7.67-5.42A54.989,54.989,0,0,1,84.13,3.471,57.529,57.529,0,0,1,103.956,0a55.8,55.8,0,0,1,36.019,12.81,49.9,49.9,0,0,1,6.428,6.509,46.893,46.893,0,0,1,5.026,7.5,43.4,43.4,0,0,1,5.1,17.287,44.881,44.881,0,0,1,6.247-.441,43.82,43.82,0,0,1,16.435,3.157,42.95,42.95,0,0,1,7.172,3.7,42.146,42.146,0,0,1,6.249,4.9,40.965,40.965,0,0,1,5.156,5.945,39.6,39.6,0,0,1,3.893,6.823,38.5,38.5,0,0,1,0,31.271,39.6,39.6,0,0,1-3.893,6.823,40.965,40.965,0,0,1-5.156,5.945,42.146,42.146,0,0,1-6.249,4.9,42.95,42.95,0,0,1-7.172,3.7A43.82,43.82,0,0,1,162.777,124c-.053,0-.107,0-.159,0l-.132,0V124Z" transform="translate(430.12 1050.238)" stroke="rgba(0,0,0,0)" stroke-miterlimit="10" stroke-width="1" fill="url(#linear-gradient)"/>
    <g id="Group_10" data-name="Group 10" transform="translate(485.521 1180.606)">
      <g id="Group_8" data-name="Group 8" transform="translate(0 0)">
        <rect id="Rectangle_12" data-name="Rectangle 12" width="4.467" height="21.06" rx="2.234" transform="translate(8.9 0) rotate(25)" fill="#95a5ba"/>
        <rect id="Rectangle_13" data-name="Rectangle 13" width="4.467" height="21.06" rx="2.234" transform="translate(22.94 0) rotate(25)" fill="#95a5ba"/>
        <rect id="Rectangle_14" data-name="Rectangle 14" width="4.467" height="21.06" rx="2.234" transform="translate(36.98 0) rotate(25)" fill="#95a5ba"/>
      </g>
    </g>
    <path id="Path_8" data-name="Path 8" d="M305.99,562.654,289.212,588.2H302.1L287,620.07l30.608-40.25H300.169Z" transform="translate(245.747 597.707)" fill="#dfe545"/>
  </g>
</svg>
